name C:/MyDriveSym/Projects/mobilecap/Data\Session20210903_0001\mocap\ForceDataProcessed\DJ1_forces.mot
datacolumns 28
datarows 20
range 1.86700000 1.87650000
endheader 
time	R_ground_force_vx	R_ground_force_vy	R_ground_force_vz	R_ground_force_px	R_ground_force_py	R_ground_force_pz	R_ground_torque_x	R_ground_torque_y	R_ground_torque_z	L_ground_force_vx	L_ground_force_vy	L_ground_force_vz	L_ground_force_px	L_ground_force_py	L_ground_force_pz	L_ground_torque_x	L_ground_torque_y	L_ground_torque_z	3_ground_force_vx	3_ground_force_vy	3_ground_force_vz	3_ground_force_px	3_ground_force_py	3_ground_force_pz	3_ground_torque_x	3_ground_torque_y	3_ground_torque_z	
          1.86700000	        -97.10422000	        507.63463000	        -15.40663300	         -0.12130000	          0.00600000	         -0.45972500	          0.00000000	         -2.74582200	          0.00000000	        -89.04673000	        462.18218700	         27.43168700	         -0.16265200	          0.00600000	         -0.74913100	          0.00000000	          1.34599000	          0.00000000	          0.00000000	          0.00000000	          0.00000000	          0.00000000	          0.00000000	          0.00000000	          0.00000000	          0.00000000	          0.00000000	
          1.86750000	        -97.42927700	        506.74039600	        -15.54612000	         -0.12119500	          0.00600000	         -0.45968300	          0.00000000	         -2.71217600	          0.00000000	        -89.22288100	        460.85730200	         27.48980200	         -0.16256400	          0.00600000	         -0.74916400	          0.00000000	          1.32152500	          0.00000000	          0.00000000	          0.00000000	          0.00000000	          0.00000000	          0.00000000	          0.00000000	          0.00000000	          0.00000000	          0.00000000	
          1.86800000	        -97.73985900	        505.81308100	        -15.68607800	         -0.12109100	          0.00600000	         -0.45964000	          0.00000000	         -2.67797100	          0.00000000	        -89.37594400	        459.48505800	         27.54725000	         -0.16247600	          0.00600000	         -0.74919600	          0.00000000	          1.29693600	          0.00000000	          0.00000000	          0.00000000	          0.00000000	          0.00000000	          0.00000000	          0.00000000	          0.00000000	          0.00000000	          0.00000000	
          1.86850000	        -98.03534600	        504.85192800	        -15.82626400	         -0.12098700	          0.00600000	         -0.45959500	          0.00000000	         -2.64323000	          0.00000000	        -89.50515800	        458.06421000	         27.60396500	         -0.16238700	          0.00600000	         -0.74922900	          0.00000000	          1.27224200	          0.00000000	          0.00000000	          0.00000000	          0.00000000	          0.00000000	          0.00000000	          0.00000000	          0.00000000	          0.00000000	          0.00000000	
          1.86900000	        -98.31510800	        503.85618000	        -15.96645300	         -0.12088300	          0.00600000	         -0.45954800	          0.00000000	         -2.60798200	          0.00000000	        -89.60977700	        456.59353900	         27.65986700	         -0.16229600	          0.00600000	         -0.74926300	          0.00000000	          1.24745900	          0.00000000	          0.00000000	          0.00000000	          0.00000000	          0.00000000	          0.00000000	          0.00000000	          0.00000000	          0.00000000	          0.00000000	
          1.86950000	        -98.57850000	        502.82507100	        -16.10643900	         -0.12078000	          0.00600000	         -0.45950000	          0.00000000	         -2.57225500	          0.00000000	        -89.68905700	        455.07182600	         27.71485800	         -0.16220400	          0.00600000	         -0.74929700	          0.00000000	          1.22261000	          0.00000000	          0.00000000	          0.00000000	          0.00000000	          0.00000000	          0.00000000	          0.00000000	          0.00000000	          0.00000000	          0.00000000	
          1.87000000	        -98.82486900	        501.75782200	        -16.24603200	         -0.12067800	          0.00600000	         -0.45945000	          0.00000000	         -2.53608100	          0.00000000	        -89.74225600	        453.49784900	         27.76883100	         -0.16211000	          0.00600000	         -0.74933100	          0.00000000	          1.19772000	          0.00000000	          0.00000000	          0.00000000	          0.00000000	          0.00000000	          0.00000000	          0.00000000	          0.00000000	          0.00000000	          0.00000000	
          1.87050000	        -99.05355200	        500.65362700	        -16.38506400	         -0.12057600	          0.00600000	         -0.45939900	          0.00000000	         -2.49948700	          0.00000000	        -89.76862200	        451.87039000	         27.82168400	         -0.16201600	          0.00600000	         -0.74936500	          0.00000000	          1.17282000	          0.00000000	          0.00000000	          0.00000000	          0.00000000	          0.00000000	          0.00000000	          0.00000000	          0.00000000	          0.00000000	          0.00000000	
          1.87100000	        -99.26389300	        499.51165000	        -16.52338300	         -0.12047400	          0.00600000	         -0.45934600	          0.00000000	         -2.46250200	          0.00000000	        -89.76739800	        450.18825700	         27.87333200	         -0.16191900	          0.00600000	         -0.74940000	          0.00000000	          1.14794700	          0.00000000	          0.00000000	          0.00000000	          0.00000000	          0.00000000	          0.00000000	          0.00000000	          0.00000000	          0.00000000	          0.00000000	
          1.87150000	        -99.45524400	        498.33102600	        -16.66084600	         -0.12037300	          0.00600000	         -0.45929100	          0.00000000	         -2.42514900	          0.00000000	        -89.73782100	        448.45029300	         27.92370300	         -0.16182200	          0.00600000	         -0.74943500	          0.00000000	          1.12313800	          0.00000000	          0.00000000	          0.00000000	          0.00000000	          0.00000000	          0.00000000	          0.00000000	          0.00000000	          0.00000000	          0.00000000	
          1.87200000	        -99.62697500	        497.11087400	        -16.79730600	         -0.12027300	          0.00600000	         -0.45923500	          0.00000000	         -2.38744800	          0.00000000	        -89.67912000	        446.65537300	         27.97273300	         -0.16172200	          0.00600000	         -0.74947100	          0.00000000	          1.09843000	          0.00000000	          0.00000000	          0.00000000	          0.00000000	          0.00000000	          0.00000000	          0.00000000	          0.00000000	          0.00000000	          0.00000000	
          1.87250000	        -99.77846900	        495.85030600	        -16.93261100	         -0.12017300	          0.00600000	         -0.45917800	          0.00000000	         -2.34941100	          0.00000000	        -89.59052200	        444.80239200	         28.02036000	         -0.16162100	          0.00600000	         -0.74950700	          0.00000000	          1.07385800	          0.00000000	          0.00000000	          0.00000000	          0.00000000	          0.00000000	          0.00000000	          0.00000000	          0.00000000	          0.00000000	          0.00000000	
          1.87300000	        -99.90912400	        494.54843300	        -17.06660100	         -0.12007300	          0.00600000	         -0.45911900	          0.00000000	         -2.31104800	          0.00000000	        -89.47125800	        442.89027200	         28.06651500	         -0.16151800	          0.00600000	         -0.74954300	          0.00000000	          1.04946000	          0.00000000	          0.00000000	          0.00000000	          0.00000000	          0.00000000	          0.00000000	          0.00000000	          0.00000000	          0.00000000	          0.00000000	
          1.87350000	       -100.01834000	        493.20436600	        -17.19910700	         -0.11997300	          0.00600000	         -0.45905900	          0.00000000	         -2.27236800	          0.00000000	        -89.32056600	        440.91796800	         28.11111200	         -0.16141300	          0.00600000	         -0.74958000	          0.00000000	          1.02527100	          0.00000000	          0.00000000	          0.00000000	          0.00000000	          0.00000000	          0.00000000	          0.00000000	          0.00000000	          0.00000000	          0.00000000	
          1.87400000	       -100.10552400	        491.81720000	        -17.32995600	         -0.11987400	          0.00600000	         -0.45899700	          0.00000000	         -2.23338300	          0.00000000	        -89.13770200	        438.88445400	         28.15405000	         -0.16130600	          0.00600000	         -0.74961700	          0.00000000	          1.00131900	          0.00000000	          0.00000000	          0.00000000	          0.00000000	          0.00000000	          0.00000000	          0.00000000	          0.00000000	          0.00000000	          0.00000000	
          1.87450000	       -100.17007300	        490.38600300	        -17.45897900	         -0.11977600	          0.00600000	         -0.45893400	          0.00000000	         -2.19410600	          0.00000000	        -88.92192800	        436.78870200	         28.19522500	         -0.16119700	          0.00600000	         -0.74965600	          0.00000000	          0.97762300	          0.00000000	          0.00000000	          0.00000000	          0.00000000	          0.00000000	          0.00000000	          0.00000000	          0.00000000	          0.00000000	          0.00000000	
          1.87500000	       -100.21135900	        488.90981800	        -17.58601700	         -0.11967800	          0.00600000	         -0.45887000	          0.00000000	         -2.15455300	          0.00000000	        -88.67251800	        434.62968600	         28.23454300	         -0.16108700	          0.00600000	         -0.74969500	          0.00000000	          0.95419300	          0.00000000	          0.00000000	          0.00000000	          0.00000000	          0.00000000	          0.00000000	          0.00000000	          0.00000000	          0.00000000	          0.00000000	
          1.87550000	       -100.22871900	        487.38768400	        -17.71093300	         -0.11958000	          0.00600000	         -0.45880500	          0.00000000	         -2.11474000	          0.00000000	        -88.38875400	        432.40639800	         28.27191500	         -0.16097400	          0.00600000	         -0.74973500	          0.00000000	          0.93104300	          0.00000000	          0.00000000	          0.00000000	          0.00000000	          0.00000000	          0.00000000	          0.00000000	          0.00000000	          0.00000000	          0.00000000	
          1.87600000	       -100.22145500	        485.81864100	        -17.83361000	         -0.11948200	          0.00600000	         -0.45873700	          0.00000000	         -2.07468200	          0.00000000	        -88.06991800	        430.11785800	         28.30725900	         -0.16085900	          0.00600000	         -0.74977500	          0.00000000	          0.90818400	          0.00000000	          0.00000000	          0.00000000	          0.00000000	          0.00000000	          0.00000000	          0.00000000	          0.00000000	          0.00000000	          0.00000000	
          1.87650000	       -100.18884100	        484.20172600	        -17.95394700	         -0.11938500	          0.00600000	         -0.45866900	          0.00000000	         -2.03439400	          0.00000000	        -87.71528500	        427.76310600	         28.34050000	         -0.16074300	          0.00600000	         -0.74981700	          0.00000000	          0.88563300	          0.00000000	          0.00000000	          0.00000000	          0.00000000	          0.00000000	          0.00000000	          0.00000000	          0.00000000	          0.00000000	          0.00000000	
